<svg height="24" viewBox="0 0 24 24" width="24" xmlns="http://www.w3.org/2000/svg"><path d="m12 6.42c6.35 0 11.23 2.68 11.23 5.62s-4.9 5.61-11.23 5.61-11.24-2.65-11.24-5.65 4.88-5.58 11.24-5.58m0-.62c-6.55 0-11.86 2.79-11.86 6.2s5.31 6.27 11.86 6.27 11.84-2.79 11.84-6.27-5.31-6.2-11.84-6.2zm-3.78 5.74c-.29 1.5-1.33 1.34-2.6 1.34l.51-2.62c1.41 0 2.36-.15 2.09 1.28zm-4.47 4h1.35l.33-1.66c1.52 0 2.46.11 3.34-.71a2.55 2.55 0 0 0 .53-3.27 2.16 2.16 0 0 0 -1.73-.62h-2.57zm6.87-7.91h1.38l-.32 1.66c1.17 0 2.25-.09 2.77.39s.29 1.15-.31 4.19h-1.4c.57-2.94.68-3.18.47-3.41s-.65-.17-1.75-.17l-.7 3.58h-1.35zm8.22 3.92c-.3 1.52-1.36 1.34-2.6 1.34l.51-2.62c1.42 0 2.36-.15 2.09 1.28zm-4.47 4h1.36l.32-1.66c1.6 0 2.49.09 3.34-.71a2.53 2.53 0 0 0 .53-3.26 2.15 2.15 0 0 0 -1.72-.62h-2.62z" fill="#080736"/></svg>