<svg viewBox="0 0 22 16" xmlns="http://www.w3.org/2000/svg"><path d="m18.3567699 9.20947175c-.742198.00388583-1.3872496.18263508-1.9273831.44687308-.1981785-.39247108-.396357-.74219791-.4313297-.99866416-.0388585-.29921075-.0854888-.48184582-.0388585-.8393443.0466301-.35749849.2564662-.86654524.2525804-.90540376-.0038858-.03885853-.0466302-.22149363-.4740741-.22537949-.4274438-.00388585-.7965999.08160292-.8393442.19429266-.0427445.11268974-.1243474.36915604-.1787493.63339405-.0738312.3885853-.8548877 1.77583484-1.3017607 2.50248937-.1437766-.28366728-.268124-.53236187-.2953249-.73054037-.0388586-.29921066-.0854888-.48184575-.0388586-.83934425.0466303-.3574985.2564664-.86654525.2525806-.90540378-.003886-.03885853-.0466303-.22149362-.4740741-.22537948-.4274439-.00388585-.7965999.08160292-.8393443.19429265-.0427444.11268975-.0893746.37692775-.1787492.63339405-.0893747.25646631-1.1268974 2.57243468-1.3989071 3.17085618-.1398908.3069823-.2603522.551791-.345841.7188827 0 0-.0038858.0116576-.0155434.0310868-.0738312.1437766-.11657562.2214937-.11657562.2214937v.0038858c-.05828775.104918-.12046141.2020644-.15154825.2020644-.02331508 0-.0660595-.2797814.00777175-.660595.15543409-.8043716.52459022-2.05561627.52070422-2.09836068 0-.02331509.0699455-.24092292-.2409228-.35361259-.30309658-.11268975-.41190042.07383117-.43910142.07383117s-.04663025.0660595-.04663025.0660595.33806925-1.4066788-.64505158-1.4066788c-.61396483 0-1.46108077.67225255-1.88075291 1.27844563-.26423801.14377659-.8276867.450759-1.42999392.78105647-.22926534.1282332-.46630237.2564664-.68779599.3769278-.01554342-.0155434-.03108683-.0349727-.04663024-.0505161-1.18907104-1.270674-3.38846387-2.16830602-3.2952034-3.87419553.03497268-.62173649.24869459-2.25379477 4.22392228-4.23557984 3.27188826-1.61262902 5.87540983-1.16575591 6.32616873-.17486338.6450517 1.41445052-1.3950212 4.04128718-4.77571336 4.42210078-1.29010321.14377657-1.96624165-.35361262-2.13721918-.54013357-.17874924-.19429265-.20595022-.20595021-.27200972-.16709169-.10880388.0582878-.03885853.2331512 0 .33418337.10103219.26423801.51681846.73054038 1.22015787.95980571.62173649.20206436 2.13333334.3147541 3.96357009-.39247116 2.0478446-.79271402 3.6488161-2.99599272 3.1786278-4.84177292-.4701882-1.87298118-3.57887063-2.49083182-6.5204614-1.44553734-1.74863388.62173649-3.64493018 1.60097146-5.00886461 2.87553127-1.62040072 1.51548269-1.87686703 2.83278688-1.77194899 3.38457802.37692774 1.95846995 3.07759562 3.23302978 4.15786278 4.17729198-.05440195.0310869-.10491804.0582879-.14766242.081603-.54013358.2681238-2.5996357 1.3445051-3.1125683 2.48306-.58287797 1.2901033.09326047 2.2149363.54013357 2.3392836 1.38724955.3846994 2.81335762-.3069824 3.57887068-1.4494231.76551305-1.1424409.67225257-2.6268367.31863995-3.306861-.00388586-.0077717-.00777171-.0155435-.01554342-.0233151.13989071-.0816029.28366728-.1670917.42355799-.2486946.27589556-.1632058.54790528-.3147542.78105646-.4391014-.132119.3613843-.22926532.792714-.27589556 1.4144505-.0582878.7305404.24092289 1.6786885.63339405 2.0517304.17486339.1632058.3808136.1670917.5129326.1670917.45853066 0 .66448088-.3808136.89374624-.8315725.27978141-.5517912.53236183-1.192957.53236183-1.192957s-.31475408 1.7330905.54013358 1.7330905c.31086825 0 .62562237-.4041287.76551307-.610079v.003886s.0077717-.0116576.0233151-.0388586c.0310868-.0505161.0505161-.0816029.0505161-.0816029v-.0077717c.1243473-.2176078.4041287-.7111112.819915-1.5310262.5362477-1.056952 1.0530662-2.37814197 1.0530662-2.37814197s.0466302.32252575.2059502.8587735c.0932605.31475407.2875531.66059497.4429873.99477837-.1243474.1748634-.2020644.2720097-.2020644.2720097s0 0 .0038858.0038858c-.1010321.132119-.209836.2758956-.3302975.4157864-.423558.5051608-.9287189 1.084153-.9986642 1.2512446-.0816029.1981785-.0621737.3419551.0932604.4585307.1126898.0854888.3147542.0971463.5207043.0854888.3808136-.027201.6489376-.1204615.7810565-.1787493.2059502-.0738312.4468731-.1865209.6722526-.3536126.4157863-.3069824.6683667-.7460838.6450516-1.3250759-.0116576-.31864-.1165756-.6372799-.2448087-.9364906.0388585-.054402.0738312-.1088039.1126897-.1632058.6567092-.95980575 1.1657559-2.01287192 1.1657559-2.01287192s.0466303.32252584.2059503.8587735c.077717.27200975.237037.56733459.3769277.85488772-.6178506.501275-.9986642 1.084153-1.1346691 1.4649666-.2448088.7072253-.0544019 1.0258652.3069824 1.0996964.1632058.0349727.396357-.0427444.5673346-.1165756.2176077-.0699453.4740741-.1904068.7188827-.369156.4157864-.3069824.8160292-.7344262.7927141-1.3134184-.0116576-.264238-.0816029-.5245901-.1787492-.7771706.5245901-.2176077 1.2007285-.3380692 2.063388-.23703703 1.849666.21760783 2.2149362 1.37170613 2.1449908 1.85743783-.0699454.4857316-.4585307.7499696-.5867638.8315725s-.1709775.1088039-.15932.1670917c.0155435.0854888.0777171.0816029.186521.0660595.1515482-.027201.9714632-.3924711 1.006436-1.2862174.0582877-1.1424407-1.0297511-2.38979963-2.9532484-2.37814205zm-14.26885248 4.81068605c-.61396478.6683668-1.46885245.9209472-1.83800849.7072253-.39635701-.2292654-.2409229-1.216272.5129326-1.9234973.45853066-.4313296 1.04918033-.8315725 1.44165149-1.0763812.08937462-.054402.22149362-.132119.3808136-.2292654.02720097-.0155434.04274438-.0233151.04274438-.0233151.03108683-.0194293.06217365-.0388585.09326048-.0582878.27589556 1.0103218.01165755 1.9001821-.63339406 2.6035215zm4.468731-3.0387371c-.21372192.5207044-.66059499 1.853552-.9326047 1.7797208-.23315119-.0621737-.37692775-1.0724955-.04663024-2.0711598.16709168-.501275.52070431-1.09969637.72665452-1.33284753.33418333-.37304192.70333942-.49738917.792714-.34584092.11268975.1981785-.40801458 1.64371585-.54013358 1.97012745zm3.68767458 1.7641774c-.0893746.0466302-.1748634.077717-.2137219.0544019-.027201-.0155434.0388585-.0777171.0388585-.0777171s.4624166-.4973892.6450517-.7227687c.1049179-.132119.2292653-.287553.3613843-.4624165v.0505161c0 .5945355-.5751063.9947784-.8315726 1.1579843zm2.8444444-.6489375c-.0660595-.0466303-.0544019-.2020644.1670918-.687796.0854887-.1904068.287553-.5090468.633394-.8160291.0388585.1243472.0660595.2448087.0621736.3574984-.0038858.7499697-.5401336 1.0297511-.8626594 1.1463267z"/></svg>